<svg xmlns="http://www.w3.org/2000/svg" viewBox="0 0 608.1 780.94"><defs><style>.cls-1{fill:#ca625b;}.cls-2{fill:#416b9b;}.cls-3{fill:#fff;}.cls-4{fill:#2b2b2b;}.cls-5{fill:#201f1f;}.cls-6{fill:#ace0f5;}.cls-7{fill:#d2eef7;}.cls-8{fill:#1277bd;}.cls-9{fill:#d1d3d4;}.cls-10{fill:#ef3933;}</style></defs><title>court</title><g id="Layer_1" data-name="Layer 1"><polygon class="cls-1" points="594.12 683.49 476.02 468.67 131.86 468.67 13.75 683.49 2.7 703.59 605.17 703.59 594.12 683.49"/><path class="cls-2" d="M2.7,703.59c0,41.23,134.87,74.65,301.24,74.65s301.23-33.42,301.23-74.65Z"/><path class="cls-3" d="M303.94,780.94c-80.68,0-156.56-7.79-213.66-21.94C62.36,752.08,40.4,744,25,735c-16.6-9.72-25-20.28-25-31.38v-.7l11.39-20.71L130.26,466H477.61L607.87,702.89v.7c0,11.1-8.41,21.66-25,31.38-15.4,9-37.36,17.11-65.28,24C460.49,773.15,384.61,780.94,303.94,780.94ZM5.41,704.25c.76,18.09,32.07,36.1,86.17,49.5,56.69,14,132.11,21.79,212.36,21.79s155.66-7.74,212.35-21.79c54.11-13.4,85.42-31.41,86.17-49.5l-128-232.88h-341Z"/><rect class="cls-4" x="292.68" y="127.55" width="22.51" height="368.45"/><polygon class="cls-4" points="374.18 509.47 233.69 509.47 252.73 482.52 355.14 482.52 374.18 509.47"/><rect class="cls-5" x="233.7" y="509.47" width="140.48" height="8.72"/><ellipse class="cls-5" cx="243.76" cy="505.42" rx="3.72" ry="1.15"/><path class="cls-5" d="M258.8,485.56c0,.45-1.17.81-2.62.81s-2.63-.36-2.63-.81,1.18-.81,2.63-.81S258.8,485.11,258.8,485.56Z"/><ellipse class="cls-5" cx="362.75" cy="505.42" rx="3.72" ry="1.15"/><path class="cls-5" d="M347.72,485.56c0,.45,1.17.81,2.62.81s2.63-.36,2.63-.81-1.18-.81-2.63-.81S347.72,485.11,347.72,485.56Z"/><rect class="cls-6" x="203.64" y="8.19" width="200.6" height="132.23"/><rect class="cls-7" x="206.09" y="10.64" width="195.69" height="127.32"/><polygon class="cls-8" points="412.42 106.8 412.42 148.61 195.45 148.61 195.45 106.8 187.26 106.8 187.26 156.8 420.61 156.8 420.61 106.8 412.42 106.8"/><path class="cls-9" d="M195.45,0V148.61h217V0ZM404.24,140.42H203.64V8.19h200.6Z"/><path class="cls-9" d="M265.23,77.23v53h77.42v-53Zm73,49.1H269.68V81.16h68.51Z"/><path class="cls-6" d="M269.68,81.16v45.17h68.51V81.16Zm66.06,42.71H272.13V83.62h63.61Z"/><path class="cls-10" d="M303.94,122.49a143,143,0,0,1-24.58-1.88c-8-1.48-11.61-3.44-11.61-6.35s3.58-4.88,11.61-6.36a162.41,162.41,0,0,1,49.15,0c8,1.48,11.61,3.44,11.61,6.36s-3.58,4.87-11.61,6.35A142.84,142.84,0,0,1,303.94,122.49Zm-32.12-8.23c2.06,1.64,12.83,4.37,32.12,4.37s30.05-2.73,32.11-4.37c-2.06-1.64-12.83-4.38-32.11-4.38S273.88,112.62,271.82,114.26Z"/><rect class="cls-10" x="290.02" y="120.56" width="27.84" height="26.27"/><path class="cls-3" d="M277.35,157.64a.39.39,0,0,1-.38-.32l-7.67-44.67a.39.39,0,0,1,.31-.45.4.4,0,0,1,.45.32l7.68,44.67a.4.4,0,0,1-.32.45Z"/><path class="cls-3" d="M285.92,160.05a.39.39,0,0,1-.38-.35l-5.16-50.49a.38.38,0,0,1,.34-.42.4.4,0,0,1,.43.35l5.16,50.48a.39.39,0,0,1-.35.43Z"/><path class="cls-3" d="M303.94,163.36a.39.39,0,0,1-.39-.39V108a.39.39,0,0,1,.77,0v55A.39.39,0,0,1,303.94,163.36Z"/><path class="cls-3" d="M330.52,157.64h-.07a.39.39,0,0,1-.31-.45l7.67-44.67a.4.4,0,0,1,.45-.32.39.39,0,0,1,.31.45l-7.67,44.67A.39.39,0,0,1,330.52,157.64Z"/><path class="cls-3" d="M322,160.05h0a.39.39,0,0,1-.34-.43l5.16-50.48a.38.38,0,0,1,.42-.35.38.38,0,0,1,.34.42l-5.16,50.49A.38.38,0,0,1,322,160.05Z"/><path class="cls-3" d="M312.79,161.15h0a.39.39,0,0,1-.37-.4l2.41-52.81a.37.37,0,0,1,.4-.37.39.39,0,0,1,.37.4l-2.41,52.81A.38.38,0,0,1,312.79,161.15Z"/><path class="cls-3" d="M277.36,155.24a.4.4,0,0,1-.33-.17.4.4,0,0,1,.11-.54l7-4.66-9.25-5.27a.4.4,0,0,1-.19-.28.38.38,0,0,1,.09-.31l7.95-9-10.47-5.71a.37.37,0,0,1-.19-.28.4.4,0,0,1,.1-.33l9-9-11.72-6.8a.4.4,0,0,1-.14-.53.38.38,0,0,1,.53-.14L282,119.31a.36.36,0,0,1,.18.28.35.35,0,0,1-.11.32l-9,9,10.45,5.69a.4.4,0,0,1,.19.27.36.36,0,0,1-.09.32l-7.95,9,9.38,5.35a.39.39,0,0,1,0,.66l-7.56,5A.42.42,0,0,1,277.36,155.24Z"/><path class="cls-3" d="M285.36,154.55a.37.37,0,0,1-.31-.16c-.58-.42-5.85-2.71-9.1-4.08a.38.38,0,0,1-.23-.29.37.37,0,0,1,.12-.34l7.7-7.18-10.14-6.72a.34.34,0,0,1-.17-.29.38.38,0,0,1,.12-.32l8.6-7.68L271,121.79a.43.43,0,0,1-.2-.26.41.41,0,0,1,.08-.32l9.56-12.27a.38.38,0,0,1,.52-.08l12.37,8.61a.35.35,0,0,1,.16.29.36.36,0,0,1-.12.31l-10.5,9.62h0l-8.64,7.73,10.14,6.7a.44.44,0,0,1,.17.29.41.41,0,0,1-.12.32l-7.63,7.1c8.89,3.76,8.92,4,8.94,4.29a.39.39,0,0,1-.34.43Zm-13.57-33.23,10.77,5.62,9.95-9.11-11.67-8.13Z"/><path class="cls-3" d="M295.08,161.15a.38.38,0,0,1-.38-.37l-2.36-51.89-10.23,11a.38.38,0,0,1-.56-.52l10.85-11.69a.39.39,0,0,1,.41-.1.4.4,0,0,1,.26.35l2.4,52.81a.39.39,0,0,1-.37.4Z"/><path class="cls-3" d="M286.47,157.64a.36.36,0,0,1-.31-.16.38.38,0,0,1,.07-.53c.33-.29,4.65-5.11,7.68-8.51L284,142.78a.39.39,0,0,1-.1-.59l9.23-10.36-10.61-4.07a.39.39,0,0,1-.23-.49.4.4,0,0,1,.5-.23l11.14,4.27a.39.39,0,0,1,.15.61l-9.28,10.43,9.94,5.66a.4.4,0,0,1,.19.27.4.4,0,0,1-.09.32c-2.35,2.63-7.84,8.77-8.12,9A.34.34,0,0,1,286.47,157.64Z"/><path class="cls-3" d="M295.08,155.64a.39.39,0,0,1-.18,0l-10.16-5.41a.38.38,0,0,1-.2-.29.39.39,0,0,1,.12-.34l8.9-8.16-10.36-6.15A.37.37,0,0,1,283,135a.38.38,0,0,1,.12-.32l9.68-9.08L281.66,120a.39.39,0,0,1-.17-.52.37.37,0,0,1,.51-.17l11.43,5.7,9.89-7.8-10.88-9a.38.38,0,0,1-.06-.54.39.39,0,0,1,.55,0l11.25,9.25a.41.41,0,0,1,.14.3.37.37,0,0,1-.14.3l-10.08,7.95,10.08,8a.37.37,0,0,1,.14.3.36.36,0,0,1-.15.3l-9.33,7.3,9.33,6.91a.4.4,0,0,1,.15.31.37.37,0,0,1-.15.31l-8.85,6.71A.41.41,0,0,1,295.08,155.64Zm-9.5-5.88,9.47,5,8.24-6.25-9.06-6.72ZM284,134.85l10.14,6,9.14-7.14L293.5,126Z"/><path class="cls-3" d="M303.94,163.36a.39.39,0,0,1-.39-.39V125.08L294,132a.39.39,0,0,1-.46-.62l9.71-7-10.31-6.24a.37.37,0,0,1-.18-.3.35.35,0,0,1,.12-.32l10.81-9.83a.38.38,0,0,1,.64.28v16.38h0V163A.39.39,0,0,1,303.94,163.36Zm-10.17-45.64,9.78,5.93V108.83Z"/><path class="cls-3" d="M303.94,140.91a.43.43,0,0,1-.26-.09L293.51,132a.38.38,0,0,1,0-.54.37.37,0,0,1,.54,0l10.18,8.86a.38.38,0,0,1,0,.54A.39.39,0,0,1,303.94,140.91Z"/><path class="cls-3" d="M303.94,157.24a.35.35,0,0,1-.26-.1l-9.42-8.51a.39.39,0,0,1-.13-.29.44.44,0,0,1,.14-.29l9.42-7.82a.38.38,0,0,1,.54.05.37.37,0,0,1-.05.54l-9.07,7.54,9.09,8.21a.39.39,0,0,1,0,.55A.38.38,0,0,1,303.94,157.24Z"/><path class="cls-3" d="M330.52,157.64h-.07a.39.39,0,0,1-.31-.45l7.67-44.67a.4.4,0,0,1,.45-.32.39.39,0,0,1,.31.45l-7.67,44.67A.39.39,0,0,1,330.52,157.64Z"/><path class="cls-3" d="M322,160.05h0a.39.39,0,0,1-.34-.43l5.16-50.48a.38.38,0,0,1,.42-.35.38.38,0,0,1,.34.42l-5.16,50.49A.38.38,0,0,1,322,160.05Z"/><path class="cls-3" d="M303.94,163.36a.39.39,0,0,1-.39-.39V108a.39.39,0,0,1,.77,0v55A.39.39,0,0,1,303.94,163.36Z"/><path class="cls-3" d="M330.52,155.24a.37.37,0,0,1-.21-.06l-7.57-5a.37.37,0,0,1-.17-.34.39.39,0,0,1,.19-.32l9.39-5.35-8-9a.36.36,0,0,1-.09-.32.4.4,0,0,1,.19-.27l10.45-5.69-9-9a.38.38,0,0,1,.08-.6L338,112.25a.38.38,0,0,1,.53.14.4.4,0,0,1-.14.53l-11.72,6.8,9,9a.41.41,0,0,1,.11.33.39.39,0,0,1-.2.28L325.09,135l8,9a.35.35,0,0,1,.09.31.4.4,0,0,1-.19.28l-9.25,5.27,7,4.66a.39.39,0,0,1-.21.71Z"/><path class="cls-3" d="M322.51,154.55h0a.4.4,0,0,1-.34-.43c0-.27.05-.53,8.94-4.29l-7.62-7.1a.38.38,0,0,1-.12-.32.4.4,0,0,1,.17-.29l10.13-6.7L325,127.69h0l-10.51-9.62a.39.39,0,0,1-.12-.31.41.41,0,0,1,.16-.29l12.37-8.61a.38.38,0,0,1,.53.08L337,121.21a.41.41,0,0,1,.07.32.43.43,0,0,1-.2.26l-10.93,5.7,8.6,7.68a.39.39,0,0,1,.13.32.37.37,0,0,1-.17.29l-10.15,6.72,7.7,7.18a.37.37,0,0,1,.12.34.38.38,0,0,1-.23.29c-3.24,1.37-8.52,3.66-9.1,4.08A.37.37,0,0,1,322.51,154.55Zm-7.15-36.72,9.95,9.11,10.77-5.62L327,109.7Z"/><path class="cls-3" d="M312.79,161.15h0a.39.39,0,0,1-.37-.4l2.41-52.81a.38.38,0,0,1,.25-.35.39.39,0,0,1,.41.1l10.85,11.69a.38.38,0,0,1-.56.52l-10.22-11-2.37,51.89A.38.38,0,0,1,312.79,161.15Z"/><path class="cls-3" d="M321.4,157.64a.36.36,0,0,1-.22-.07c-.28-.2-5.77-6.34-8.11-9a.37.37,0,0,1-.1-.32.4.4,0,0,1,.19-.27l9.95-5.66-9.29-10.43a.38.38,0,0,1-.08-.34.37.37,0,0,1,.23-.27L325.11,127a.4.4,0,0,1,.5.23.39.39,0,0,1-.22.49l-10.62,4.07L324,142.19a.37.37,0,0,1,.09.32.4.4,0,0,1-.19.27L314,148.44c3,3.41,7.39,8.25,7.69,8.52a.39.39,0,0,1,.05.53A.38.38,0,0,1,321.4,157.64Z"/><path class="cls-3" d="M312.79,155.64a.38.38,0,0,1-.23-.08l-8.86-6.71a.4.4,0,0,1-.15-.31.38.38,0,0,1,.16-.31l9.33-6.91L303.7,134a.38.38,0,0,1-.15-.3.36.36,0,0,1,.15-.3l10.07-8-10.07-7.95a.38.38,0,0,1-.15-.3.41.41,0,0,1,.14-.3L315,107.66a.37.37,0,0,1,.54,0,.39.39,0,0,1-.05.54l-10.89,9,9.89,7.8,11.43-5.7a.39.39,0,0,1,.52.17.4.4,0,0,1-.18.52l-11.15,5.57,9.68,9.08a.35.35,0,0,1,.12.32.38.38,0,0,1-.18.29l-10.36,6.15,8.89,8.16a.4.4,0,0,1,.13.34.39.39,0,0,1-.21.29L313,155.6A.39.39,0,0,1,312.79,155.64Zm-8.21-7.09,8.25,6.25,9.46-5-8.64-7.93Zm0-14.83,9.14,7.14,10.14-6L314.37,126Z"/><path class="cls-3" d="M303.94,163.36a.39.39,0,0,1-.39-.39V124.33h0V108a.38.38,0,0,1,.23-.35.41.41,0,0,1,.42.07L315,117.5a.39.39,0,0,1,.13.32.38.38,0,0,1-.19.3l-10.31,6.24,9.71,7a.38.38,0,0,1,.09.53.39.39,0,0,1-.54.09l-9.57-6.9V163A.39.39,0,0,1,303.94,163.36Zm.38-54.53v14.82l9.78-5.93Z"/><path class="cls-3" d="M303.94,140.91a.36.36,0,0,1-.29-.13.38.38,0,0,1,0-.54l10.18-8.86a.37.37,0,0,1,.54,0,.38.38,0,0,1,0,.54l-10.18,8.86A.38.38,0,0,1,303.94,140.91Z"/><path class="cls-3" d="M303.94,157.24a.4.4,0,0,1-.29-.12.39.39,0,0,1,0-.55l9.08-8.21-9.07-7.54a.38.38,0,0,1,.49-.59l9.42,7.82a.37.37,0,0,1,.14.29.36.36,0,0,1-.13.29l-9.41,8.51A.39.39,0,0,1,303.94,157.24Z"/><path class="cls-10" d="M271.54,114.55a.58.58,0,0,0,.07-.29h-3.86c0-2.92,3.58-4.88,11.61-6.36a162.41,162.41,0,0,1,49.15,0c8,1.48,11.61,3.44,11.61,6.36h-3.85a.62.62,0,0,0,.06.29c-1-1.57-11.9-4.67-32.39-4.67S272.56,113,271.54,114.55Z"/><rect class="cls-3" x="2.7" y="700.89" width="602.47" height="5.4"/><polygon class="cls-3" points="110.91 508.86 84.72 508.86 93.85 497.52 115.67 497.52 110.91 508.86"/><polygon class="cls-3" points="84.72 555.76 57.08 555.76 61.45 550.37 84.72 550.37 84.72 555.76"/><polygon class="cls-3" points="59.26 602.67 29.05 602.67 33.42 597.27 59.26 597.27 59.26 602.67"/><polygon class="cls-3" points="31.23 654.35 1.02 654.35 5.39 648.95 31.23 648.95 31.23 654.35"/><polygon class="cls-3" points="498.21 508.86 524.4 508.86 515.27 497.52 493.45 497.52 498.21 508.86"/><polygon class="cls-3" points="524.4 555.76 552.04 555.76 547.67 550.37 524.4 550.37 524.4 555.76"/><polygon class="cls-3" points="549.86 602.67 580.07 602.67 575.7 597.27 549.86 597.27 549.86 602.67"/><polygon class="cls-3" points="577.89 654.35 608.1 654.35 603.73 648.95 577.89 648.95 577.89 654.35"/></g></svg>